<?xml version="1.0" encoding="utf-8"?>
<!-- Generator: Adobe Illustrator 23.0.3, SVG Export Plug-In . SVG Version: 6.00 Build 0)  -->
<svg version="1.1" id="Layer_1" xmlns="http://www.w3.org/2000/svg" xmlns:xlink="http://www.w3.org/1999/xlink" x="0px" y="0px"
	 viewBox="0 0 672.1 203.1" style="enable-background:new 0 0 672.1 203.1;" xml:space="preserve">
<style type="text/css">
	.st0{fill:#00534F;}
	.st1{fill:#B09F6B;}
</style>
<g>
	<path class="st0" d="M248.9,28.2h-6.1l4.5-12h10.2L248.9,28.2z M269.9,33.4v39.5c0,15.3-10.1,24.6-25.3,24.6
		c-15.2,0-25.3-9.3-25.3-24.6V33.4h7.7v39.5c0,10.8,6.9,17.4,17.6,17.4s17.6-6.7,17.6-17.4V33.4H269.9z"/>
	<path class="st0" d="M288.2,74c0,9.9,5.8,17.2,14.9,17.2c9.4,0,15.4-7,15.4-16.7v-0.7C318.4,64,312.5,57,303.1,57
		C294,57,288.2,64.1,288.2,74 M281,74c0-13.6,8.7-23.3,21.9-23.3c7,0,13.6,3.2,15.9,8.4h0.2V33.4h7.4v63.3H319v-8.5h-0.1
		c-2.6,5.8-9.2,9.3-16,9.3C289.7,97.5,281,87.6,281,74"/>
	<path class="st0" d="M368.4,79.2v-4.2h-6.2c-13.6,0-17.8,3.7-17.8,9.3c0,4.2,3.6,7.1,8.6,7.1C361.9,91.5,368.3,85.5,368.4,79.2
		 M375.8,67.2v29.5h-7.4v-7.1h-0.2c-2.3,3.5-7.7,8-17.1,8c-8.3,0-14.4-5.4-14.4-13c0-9.1,7.2-14.8,25.4-14.8h6.2v-2.4
		c0-6.4-4.2-10.2-11.1-10.2c-6.1,0-10.4,3.7-10.8,8.8h-8c0.3-8.8,8-15.1,18.6-15.1C368.9,50.7,375.8,56.9,375.8,67.2"/>
	<path class="st0" d="M416,50.9v8.4c-13.8-1.4-20.7,4.2-20.7,17.9v19.4h-7.4V51.5h7.4v11.7C398.9,54.4,406.3,50.9,416,50.9"/>
	<path class="st0" d="M445.2,46.3h-5.2l4.5-12.9h9.3L445.2,46.3z M454.1,79.2v-4.2h-6.2c-13.6,0-17.8,3.7-17.8,9.3
		c0,4.2,3.6,7.1,8.6,7.1C447.6,91.5,454,85.5,454.1,79.2 M461.5,67.2v29.5h-7.4v-7.1h-0.2c-2.3,3.5-7.7,8-17.1,8
		c-8.3,0-14.4-5.4-14.4-13c0-9.1,7.2-14.8,25.4-14.8h6.2v-2.4c0-6.4-4.2-10.2-11.1-10.2c-6.1,0-10.4,3.7-10.8,8.8h-8
		c0.3-8.8,8-15.1,18.6-15.1C454.6,50.7,461.5,56.9,461.5,67.2"/>
	<path class="st0" d="M490.8,57c-6,0-9.8,2.6-9.8,6.2c0,4.7,4.2,5.4,11.8,7.3c9.3,2.4,17.4,3.5,17.4,13.3c0,9.3-7.3,13.6-17.7,13.6
		c-12.1,0-19.7-6.2-20.2-16.9h7.1c0.7,6.6,5.1,10.6,13.3,10.6c5.8,0,10.5-1.6,10.5-7c0-4.7-3.5-5.2-11.7-7.2
		c-9-2.3-17.5-3.5-17.5-13.3c0-9.4,8.1-13,17.3-13c10.8,0,17.3,5.1,18.6,15.4h-7.2C501.6,59.8,497.9,57,490.8,57"/>
	<path class="st0" d="M585.6,70.1v26.6h-7.4V70.1c0-8-3.9-12.9-10.5-12.9c-8.9,0-14.5,6.5-14.5,15.6v23.9h-7.4V51.5h7.4v8.9
		c2.9-6.4,8.2-9.7,15.2-9.7C579.8,50.7,585.6,58.3,585.6,70.1"/>
	<path class="st0" d="M628.3,79.2v-4.2h-6.2c-13.6,0-17.8,3.7-17.8,9.3c0,4.2,3.6,7.1,8.6,7.1C621.8,91.5,628.2,85.5,628.3,79.2
		 M635.7,67.2v29.5h-7.4v-7.1h-0.2c-2.3,3.5-7.7,8-17.1,8c-8.3,0-14.4-5.4-14.4-13c0-9.1,7.2-14.8,25.4-14.8h6.2v-2.4
		c0-6.4-4.2-10.2-11.1-10.2c-6.1,0-10.4,3.7-10.8,8.8h-8c0.3-8.8,8-15.1,18.6-15.1C628.7,50.7,635.7,56.9,635.7,67.2"/>
	<path class="st0" d="M275.3,154.9v32.1h-6.8v-9.6c-4,6.3-11.2,10.4-21.2,10.4c-18.7,0-30.8-13.6-30.8-32.5
		c0-18.9,12.2-32.6,30.4-32.6c14.7,0,24.7,8.3,27.8,22.1h-8.3c-2.4-9.6-9.2-15.4-19.5-15.4c-13.5,0-22.3,10.9-22.3,25.9
		c0,15,8.8,25.9,22.8,25.9c11.1,0,21.2-7.2,21.2-19.6h-21.2v-6.6H275.3z"/>
	<path class="st0" d="M316.6,169.5v-4.2h-6.2c-13.6,0-17.8,3.7-17.8,9.3c0,4.2,3.6,7.1,8.6,7.1C310.1,181.8,316.5,175.7,316.6,169.5
		 M324,157.5v29.5h-7.4v-7.1h-0.2c-2.4,3.5-7.7,8-17.1,8c-8.3,0-14.4-5.4-14.4-13c0-9.1,7.2-14.8,25.4-14.8h6.2v-2.4
		c0-6.4-4.2-10.2-11.1-10.2c-6.1,0-10.4,3.7-10.8,8.8h-8c0.3-8.8,8-15.1,18.6-15.1C317.1,140.9,324,147.2,324,157.5"/>
	<path class="st0" d="M370.1,159.6c-0.2-6.9-6-12.3-13.7-12.3c-7.3,0-12.7,4.9-14,12.3H370.1z M334.4,164.5c0-13.7,9.4-23.6,22-23.6
		c12.7,0,21.2,9.9,21.2,23.4v1.6h-35.4v0.4c0.5,9.1,6.3,15.1,14.2,15.1c5.1,0,10.5-2.4,12.7-8.9h8.2c-2.7,10.1-10.8,15.3-20.9,15.3
		C343,187.8,334.4,178,334.4,164.5"/>
	<path class="st0" d="M398.7,187.8c-7,0-11.1-5-11.1-11.9v-52.2h7.4v51.8c0,3.5,1.9,6,4.5,6c1.4,0,3.3-0.3,6.1-1.6v6.6
		C402.9,187.4,400.5,187.8,398.7,187.8"/>
	<path class="st0" d="M422.9,148.1v24.1c0,5.9,3.2,8.9,9.1,8.9c2.3,0,5-0.4,8.8-1.7v6.7c-3.1,1.1-5.8,1.6-8.8,1.6
		c-10.1,0-16.5-6-16.5-15.5v-24.1H406v-6.3h0.1c7.1,0,9.4-2,9.4-8.3v-6.1h7.4v14.5h17.9v6.3H422.9z"/>
	<path class="st0" d="M477.2,169.5v-4.2h-6.2c-13.6,0-17.8,3.7-17.8,9.3c0,4.2,3.6,7.1,8.6,7.1C470.6,181.8,477.1,175.7,477.2,169.5
		 M484.6,157.5v29.5h-7.4v-7.1H477c-2.3,3.5-7.7,8-17.1,8c-8.3,0-14.4-5.4-14.4-13c0-9.1,7.2-14.8,25.4-14.8h6.2v-2.4
		c0-6.4-4.2-10.2-11.1-10.2c-6.1,0-10.4,3.7-10.8,8.8h-8c0.3-8.8,8-15.1,18.6-15.1C477.6,140.9,484.6,147.2,484.6,157.5"/>
	<path class="st0" d="M516.9,187.8c-13.6,0-22-9.9-22-23.4s8.4-23.4,22-23.4c11.7,0,19,6.9,20.5,16.5h-7.6
		c-1.3-5.9-5.3-10.1-12.9-10.1c-9.3,0-14.7,7.1-14.7,17.1s5.4,17.1,14.7,17.1c8,0,12.3-4.7,13.4-11.2h7.4
		C536.5,180.4,529.1,187.8,516.9,187.8"/>
	<path class="st0" d="M587.3,160.4v26.6h-7.4v-26.6c0-8-3.9-12.9-10.5-12.9c-8.9,0-14.5,6.5-14.5,15.6v23.9h-7.4v-63.3h7.4v26.9
		c2.9-6.4,8.2-9.7,15.2-9.7C581.5,140.9,587.3,148.6,587.3,160.4"/>
	<path class="st0" d="M610.5,148.1v24.1c0,5.9,3.2,8.9,9.1,8.9c2.3,0,5-0.4,8.8-1.7v6.7c-3.1,1.1-5.8,1.6-8.8,1.6
		c-10.1,0-16.5-6-16.5-15.5v-24.1h-9.5v-6.3h0.1c7.1,0,9.4-2,9.4-8.3v-6.1h7.4v14.5h17.9v6.3H610.5z"/>
	<path class="st0" d="M664.7,169.5v-4.2h-6.2c-13.6,0-17.8,3.7-17.8,9.3c0,4.2,3.6,7.1,8.6,7.1C658.2,181.8,664.6,175.7,664.7,169.5
		 M672.1,157.5v29.5h-7.4v-7.1h-0.2c-2.3,3.5-7.7,8-17.1,8c-8.3,0-14.4-5.4-14.4-13c0-9.1,7.2-14.8,25.4-14.8h6.2v-2.4
		c0-6.4-4.2-10.2-11.1-10.2c-6.1,0-10.4,3.7-10.8,8.8h-8c0.3-8.8,8-15.1,18.6-15.1C665.2,140.9,672.1,147.2,672.1,157.5"/>
	<path class="st1" d="M74.5,140.4l-4.4,4.4l-4.9,4.9c-0.1,0.1-0.2,0.3-0.2,0.5c0,0.2,0.1,0.4,0.2,0.5l2.1,2.1
		c0.1,0.1,0.3,0.2,0.5,0.2c0.2,0,0.4-0.1,0.5-0.2l3.5-3.5l4.4-4.4l4.9-4.9c0.1-0.1,0.2-0.3,0.2-0.5c0-0.2-0.1-0.4-0.2-0.5l-0.6-0.6
		l-1.5-1.5c-0.1-0.1-0.3-0.2-0.5-0.2s-0.4,0.1-0.5,0.2L74.5,140.4z"/>
	<path class="st1" d="M89.1,163.9c0.1,0.1,0.3,0.2,0.5,0.2c0.2,0,0.4-0.1,0.5-0.2l2.1-2.1c0.1-0.1,0.2-0.3,0.2-0.5
		c0-0.2-0.1-0.4-0.2-0.5l-4.1-4.1h0l-5.9-5.9l-2.9-2.9c-0.1-0.1-0.3-0.2-0.5-0.2s-0.4,0.1-0.5,0.2l-2.1,2.1
		c-0.1,0.1-0.2,0.3-0.2,0.5c0,0.2,0.1,0.4,0.2,0.5c0,0,0,0,0,0l4.9,4.9l0,0l3,3v0h0L89.1,163.9C89.1,163.9,89.1,163.9,89.1,163.9"/>
	<path class="st1" d="M89.6,119.9c0.2,0,0.4-0.1,0.5-0.2l1-1l1-1c0.1-0.1,0.2-0.3,0.2-0.5s-0.1-0.4-0.2-0.5l-4.9-4.9l-3-3L71.9,96.4
		c-3.3-3.3-5.1-7.6-5.1-12.3c0-4.6,1.8-9,5.1-12.3c3.3-3.3,7.6-5.1,12.3-5.1s9,1.8,12.3,5.1c3.3,3.3,5.1,7.6,5.1,12.3
		c0,4.6-1.8,9-5.1,12.3l-9.2,9.2c-0.1,0.1-0.2,0.3-0.2,0.5s0.1,0.4,0.2,0.5l2.1,2.1c0.1,0.1,0.3,0.2,0.5,0.2c0.2,0,0.4-0.1,0.5-0.2
		l9.2-9.2c4.1-4.1,6.3-9.5,6.3-15.3s-2.3-11.2-6.3-15.3c-4.1-4.1-9.5-6.3-15.3-6.3c-5.8,0-11.2,2.3-15.3,6.3
		c-4.1,4.1-6.3,9.5-6.3,15.3s2.3,11.2,6.3,15.3l12.3,12.3l3,3h0l4.9,4.9C89.2,119.9,89.4,119.9,89.6,119.9"/>
	<path class="st1" d="M121.5,121.6c10-10,15.5-23.3,15.5-37.4c0-14.1-5.5-27.4-15.5-37.4c-10-10-23.3-15.5-37.4-15.5
		c-14.1,0-27.4,5.5-37.4,15.5c-10,10-15.5,23.3-15.5,37.4c0,14.1,5.5,27.4,15.5,37.4L59,133.8l3,3l0,0l4.9,4.9c0,0,0,0,0,0
		c0.1,0.1,0.3,0.2,0.5,0.2c0.2,0,0.4-0.1,0.5-0.2l2.1-2.1c0.1-0.1,0.2-0.3,0.2-0.5c0-0.2-0.1-0.4-0.2-0.5l-4.1-4.1h0l-5.9-5.9h0
		l-10.3-10.3c-9.2-9.2-14.2-21.4-14.2-34.4c0-13,5.1-25.2,14.2-34.4c9.2-9.2,21.4-14.2,34.4-14.2c13,0,25.2,5.1,34.4,14.2
		c9.2,9.2,14.2,21.4,14.2,34.4c0,13-5.1,25.2-14.2,34.4l-9.2,9.2c-0.1,0.1-0.2,0.3-0.2,0.5s0.1,0.4,0.2,0.5l2.1,2.1
		c0.1,0.1,0.3,0.2,0.5,0.2c0.2,0,0.4-0.1,0.5-0.2L121.5,121.6z"/>
	<path class="st1" d="M107.5,60.8c6.2,6.2,9.7,14.5,9.7,23.3c0,8.8-3.4,17.1-9.7,23.3l-12.3,12.3l-4.4,4.4v0l-3.5,3.5
		c-0.1,0.1-0.2,0.3-0.2,0.5c0,0.2,0.1,0.4,0.2,0.5l2.1,2.1c0.1,0.1,0.3,0.2,0.5,0.2c0.2,0,0.4-0.1,0.5-0.2c0,0,0,0,0,0l3.5-3.5
		l5.9-5.9l10.9-10.9c7-7,10.9-16.4,10.9-26.4c0-10-3.9-19.3-10.9-26.4c-7-7-16.4-10.9-26.4-10.9c-10,0-19.3,3.9-26.4,10.9
		c-7,7-10.9,16.4-10.9,26.4c0,10,3.9,19.3,10.9,26.4l9.2,9.2c0,0,0,0,0,0c0.1,0.1,0.3,0.2,0.5,0.2c0.2,0,0.4-0.1,0.5-0.2l1-1l1-1
		c0.1-0.1,0.2-0.3,0.2-0.5c0-0.2-0.1-0.4-0.2-0.5l-9.2-9.2c-6.2-6.2-9.7-14.5-9.7-23.3c0-8.8,3.4-17.1,9.7-23.3
		c6.2-6.2,14.5-9.7,23.3-9.7C93,51.1,101.2,54.6,107.5,60.8"/>
	<path class="st1" d="M90.7,146.3l-3.5,3.5c-0.1,0.1-0.2,0.3-0.2,0.5s0.1,0.4,0.2,0.5l2.1,2.1c0.1,0.1,0.3,0.2,0.5,0.2
		c0.2,0,0.4-0.1,0.5-0.2l3.5-3.5l5.9-5.9l3.5-3.5c0.1-0.1,0.2-0.3,0.2-0.5s-0.1-0.4-0.2-0.5l-2.1-2.1c-0.1-0.1-0.3-0.2-0.5-0.2
		s-0.4,0.1-0.5,0.2l-3.5,3.5L90.7,146.3z"/>
	<path class="st1" d="M65.1,127.7c-0.1,0.1-0.2,0.3-0.2,0.5c0,0.2,0.1,0.4,0.2,0.5l2.1,2.1c0.1,0.1,0.3,0.2,0.5,0.2s0.4-0.1,0.5-0.2
		l4.9-4.9l3-3l4.9-4.9c0.1-0.1,0.2-0.3,0.2-0.5c0-0.2-0.1-0.4-0.2-0.5l-1.2-1.2l-0.9-0.9c-0.1-0.1-0.3-0.2-0.5-0.2s-0.4,0.1-0.5,0.2
		l-3.5,3.5l-5.9,5.9L65.1,127.7z"/>
	<path class="st1" d="M129.6,38.7c12.1,12.1,18.8,28.3,18.8,45.4c0,17.2-6.7,33.3-18.8,45.4l-12.3,12.3l-4.4,4.4l-3.5,3.5
		c-0.1,0.1-0.2,0.3-0.2,0.5c0,0.2,0.1,0.4,0.2,0.5l2.1,2.1c0.1,0.1,0.3,0.2,0.5,0.2c0.2,0,0.4-0.1,0.5-0.2l4.9-4.9l4.4-4.4
		l10.9-10.9c12.9-12.9,20.1-30.1,20.1-48.5c0-18.3-7.1-35.5-20.1-48.5c-12.9-12.9-30.2-20.1-48.5-20.1c-18.3,0-35.5,7.1-48.5,20.1
		C22.7,48.6,15.6,65.8,15.6,84.1c0,18.3,7.1,35.5,20.1,48.5l9.2,9.2c0.1,0.1,0.3,0.2,0.5,0.2c0.2,0,0.4-0.1,0.5-0.2l2.1-2.1
		c0.1-0.1,0.2-0.3,0.2-0.5c0-0.2-0.1-0.4-0.2-0.5l-9.2-9.2c-12.1-12.1-18.8-28.3-18.8-45.4c0-17.2,6.7-33.3,18.8-45.4
		C50.9,26.6,67,19.9,84.1,19.9C101.3,19.9,117.4,26.6,129.6,38.7"/>
	<path class="st1" d="M87.2,171.9L87.2,171.9c-0.1,0.1-0.2,0.3-0.2,0.5s0.1,0.4,0.2,0.5l2.1,2.1c0.1,0.1,0.3,0.2,0.5,0.2
		c0.2,0,0.4-0.1,0.5-0.2l4.9-4.9l3-3v0l4.9-4.9c0.1-0.1,0.2-0.3,0.2-0.5c0-0.2-0.1-0.4-0.2-0.5l-2.1-2.1c-0.1-0.1-0.3-0.2-0.5-0.2
		s-0.4,0.1-0.5,0.2l-4.9,4.9l-3,3v0L87.2,171.9z"/>
	<path class="st1" d="M89.1,141.8c0.1,0.1,0.3,0.2,0.5,0.2c0.2,0,0.4-0.1,0.5-0.2l2.1-2.1c0.1-0.1,0.2-0.3,0.2-0.5s-0.1-0.4-0.2-0.5
		l-4.9-4.9l-3-3l-2-2l-2.9-2.9c-0.1-0.1-0.3-0.2-0.5-0.2c-0.2,0-0.4,0.1-0.5,0.2l-2.1,2.1c-0.1,0.1-0.2,0.3-0.2,0.5
		c0,0.2,0.1,0.4,0.2,0.5c0,0,0,0,0,0l4.9,4.9l3,3L89.1,141.8"/>
	<path class="st1" d="M111.6,142c0.2,0,0.4-0.1,0.5-0.2l2.1-2.1c0.1-0.1,0.2-0.3,0.2-0.5s-0.1-0.4-0.2-0.5l-4.1-4.1l-0.8-0.8l-3-3
		l-4.9-4.9c-0.1-0.1-0.3-0.2-0.5-0.2s-0.4,0.1-0.5,0.2l-2.1,2.1c-0.1,0.1-0.2,0.3-0.2,0.5c0,0.2,0.1,0.4,0.2,0.5l4.9,4.9v0l3,3
		l4.9,4.9C111.3,141.9,111.5,142,111.6,142"/>
	<path class="st1" d="M128.3,152.9l-4.9-4.9c-0.1-0.1-0.3-0.2-0.5-0.2s-0.4,0.1-0.5,0.2l-2.1,2.1c-0.1,0.1-0.2,0.3-0.2,0.5
		c0,0.2,0.1,0.4,0.2,0.5l4.9,4.9l-8,8l-7.2-7.2l-5.9-5.9l-2.9-2.9c-0.1-0.1-0.3-0.2-0.5-0.2c-0.2,0-0.4,0.1-0.5,0.2l-1,1l-1,1
		c-0.1,0.1-0.2,0.3-0.2,0.5c0,0.2,0.1,0.4,0.2,0.5l4.9,4.9v0l3,3h0l8,8l-8,8l-4.9-4.9c-0.1-0.1-0.3-0.2-0.5-0.2s-0.4,0.1-0.5,0.2
		l-2.1,2.1c-0.1,0.1-0.2,0.3-0.2,0.5c0,0.2,0.1,0.4,0.2,0.5c0,0,0,0,0,0l4.9,4.9l-8,8l-7.2-7.2v0l-5.9-5.9v0l-3.5-3.5
		c-0.1-0.1-0.3-0.2-0.5-0.2c-0.2,0-0.4,0.1-0.5,0.2l-2.1,2.1c-0.1,0.1-0.2,0.3-0.2,0.5c0,0.2,0.1,0.4,0.2,0.5l5.5,5.5h0l3,3l0,0l8,8
		l-8,8l-8-8l4.9-4.9c0.1-0.1,0.2-0.3,0.2-0.5c0-0.2-0.1-0.4-0.2-0.5l-2.1-2.1c-0.1-0.1-0.3-0.2-0.5-0.2c-0.2,0-0.4,0.1-0.5,0.2
		l-4.9,4.9l-8-8l8-8l3-3l4.9-4.9c0.1-0.1,0.2-0.3,0.2-0.5s-0.1-0.4-0.2-0.5L79,159c-0.1-0.1-0.3-0.2-0.5-0.2s-0.4,0.1-0.5,0.2
		l-3.5,3.5v0l-5.9,5.9v0l-6.6,6.6l-8-8L59,162c0.1-0.1,0.2-0.3,0.2-0.5c0-0.2-0.1-0.4-0.2-0.5l-2.1-2.1c-0.1-0.1-0.3-0.2-0.5-0.2
		c-0.2,0-0.4,0.1-0.5,0.2l-4.9,4.9l-8-8l8-8l3-3v0L59,140c0.1-0.1,0.2-0.3,0.2-0.5c0-0.2-0.1-0.4-0.2-0.5l-2.1-2.1
		c-0.1-0.1-0.3-0.2-0.5-0.2s-0.4,0.1-0.5,0.2l-3.5,3.5l-1.4,1.4l-3,3l-1.4,1.4l-6.6,6.6l-12.3-12.3C12.6,125.5,4.3,105.5,4.3,84.1
		c0-21.3,8.3-41.4,23.4-56.5C42.8,12.6,62.8,4.3,84.1,4.3c21.3,0,41.4,8.3,56.5,23.4C155.7,42.8,164,62.8,164,84.1
		c0,21.3-8.3,41.4-23.4,56.5L128.3,152.9z M168.3,84.1c0-22.5-8.8-43.6-24.6-59.5C127.7,8.8,106.6,0,84.1,0
		C61.7,0,40.5,8.8,24.6,24.6C8.8,40.5,0,61.7,0,84.1c0,22.5,8.8,43.6,24.6,59.5l59.5,59.5l59.5-59.5
		C159.5,127.7,168.3,106.6,168.3,84.1"/>
	<path class="st1" d="M70.2,161.3c0-0.2-0.1-0.4-0.2-0.5l-4.1-4.1l-5.9-5.9v0l-2.9-2.9c-0.1-0.1-0.3-0.2-0.5-0.2
		c-0.2,0-0.4,0.1-0.5,0.2l-2.1,2.1c-0.1,0.1-0.2,0.3-0.2,0.5c0,0.2,0.1,0.4,0.2,0.5c0,0,0,0,0,0l4.9,4.9l0,0l3,3l0,0l4.9,4.9
		c0.1,0.1,0.3,0.2,0.5,0.2c0.2,0,0.4-0.1,0.5-0.2l2.1-2.1C70.2,161.7,70.2,161.5,70.2,161.3"/>
</g>
</svg>
